<svg width="10" height="14" viewBox="0 0 10 14" fill="none" xmlns="http://www.w3.org/2000/svg">
<path d="M6.53329 3.5H2.79996C1.89789 3.5 1.16663 4.23127 1.16663 5.13333V8.86667C1.16663 9.76873 1.89789 10.5 2.79996 10.5H6.53329C7.43536 10.5 8.16663 9.76873 8.16663 8.86667V5.13333C8.16663 4.23127 7.43536 3.5 6.53329 3.5Z" fill="url(#paint0_linear_1463_95)"/>
<path d="M7 2.33333V0.466667C7 0.342899 6.95083 0.2242 6.86332 0.136683C6.7758 0.0491665 6.6571 0 6.53333 0H2.8C2.67623 0 2.55753 0.0491665 2.47002 0.136683C2.3825 0.2242 2.33333 0.342899 2.33333 0.466667V2.33333C1.71471 2.33403 1.12162 2.58008 0.684185 3.01752C0.24675 3.45495 0.000694782 4.04804 0 4.66667V9.33333C0.000694782 9.95196 0.24675 10.545 0.684185 10.9825C1.12162 11.4199 1.71471 11.666 2.33333 11.6667V13.5333C2.33333 13.6571 2.3825 13.7758 2.47002 13.8633C2.55753 13.9508 2.67623 14 2.8 14H6.53333C6.6571 14 6.7758 13.9508 6.86332 13.8633C6.95083 13.7758 7 13.6571 7 13.5333V11.6667C7.61862 11.666 8.21171 11.4199 8.64915 10.9825C9.08658 10.545 9.33264 9.95196 9.33333 9.33333V4.66667C9.33264 4.04804 9.08658 3.45495 8.64915 3.01752C8.21171 2.58008 7.61862 2.33403 7 2.33333ZM8.63333 8.86667C8.63272 9.42343 8.41127 9.95722 8.01758 10.3509C7.62388 10.7446 7.0901 10.966 6.53333 10.9667H2.8C2.24323 10.966 1.70945 10.7446 1.31576 10.3509C0.922065 9.95722 0.700618 9.42343 0.7 8.86667V5.13333C0.700618 4.57657 0.922065 4.04278 1.31576 3.64909C1.70945 3.2554 2.24323 3.03395 2.8 3.03333H6.53333C7.0901 3.03395 7.62388 3.2554 8.01758 3.64909C8.41127 4.04278 8.63272 4.57657 8.63333 5.13333V8.86667Z" fill="url(#paint1_linear_1463_95)"/>
<defs>
<linearGradient id="paint0_linear_1463_95" x1="8" y1="3" x2="1" y2="10" gradientUnits="userSpaceOnUse">
<stop stop-color="#583ADB"/>
<stop offset="1" stop-color="#3000FF" stop-opacity="0.31"/>
</linearGradient>
<linearGradient id="paint1_linear_1463_95" x1="-1" y1="1.34643e-07" x2="9" y2="13" gradientUnits="userSpaceOnUse">
<stop stop-color="#583ADB"/>
<stop offset="1" stop-color="#3000FF" stop-opacity="0.31"/>
</linearGradient>
</defs>
</svg>
