<svg width="12" height="13" viewBox="0 0 12 13" fill="none" xmlns="http://www.w3.org/2000/svg">
<path d="M11.5896 1.33582C10.5336 0.960767 7.8 -0.00967701 7.8 7.29317e-05C7.8 0.517242 7.61036 1.01323 7.27279 1.37892C6.93523 1.74462 6.47739 1.95006 6 1.95006C5.52261 1.95006 5.06477 1.74462 4.72721 1.37892C4.38964 1.01323 4.2 0.517242 4.2 7.29317e-05C4.2 -0.00967701 1.46641 0.960767 0.409808 1.33582C0.290096 1.37832 0.185922 1.46089 0.112281 1.57162C0.0386396 1.68235 -0.000670571 1.81554 8.65606e-06 1.95201V4.3674C3.38321e-05 4.46613 0.0208208 4.56356 0.0607919 4.65229C0.100763 4.74102 0.158868 4.81872 0.230696 4.87949C0.302524 4.94027 0.386188 4.98251 0.475337 5.00303C0.564486 5.02354 0.656778 5.02179 0.745208 4.99789L2.40001 4.55005V12.35C2.40001 12.5224 2.46322 12.6877 2.57574 12.8096C2.68826 12.9315 2.84087 13 3 13H9C9.15913 13 9.31174 12.9315 9.42426 12.8096C9.53678 12.6877 9.6 12.5224 9.6 12.35V4.55005L11.2548 4.99789C11.3432 5.02179 11.4355 5.02354 11.5247 5.00303C11.6138 4.98251 11.6975 4.94027 11.7693 4.87949C11.8411 4.81872 11.8992 4.74102 11.9392 4.65229C11.9792 4.56356 12 4.46613 12 4.3674V1.95201C12.0006 1.81546 11.9612 1.68221 11.8875 1.57147C11.8137 1.46073 11.7094 1.37821 11.5896 1.33582Z" fill="url(#paint0_linear_1463_99)"/>
<defs>
<linearGradient id="paint0_linear_1463_99" x1="-2" y1="-1.08511e-07" x2="12" y2="16" gradientUnits="userSpaceOnUse">
<stop stop-color="#583ADB"/>
<stop offset="1" stop-color="#3000FF" stop-opacity="0.31"/>
</linearGradient>
</defs>
</svg>
