<svg width="17" height="17" viewBox="0 0 17 17" fill="none" xmlns="http://www.w3.org/2000/svg">
<path d="M15.9375 0H1.0625C0.53125 0 0 0.53125 0 1.0625V13.0158C0 13.547 0.53125 14.0783 1.0625 14.0783H6.375V15.1408C6.375 15.8786 5.4179 16.2033 4.25 16.2033V17H12.75V16.203C11.5818 16.203 10.625 15.8783 10.625 15.1405V14.078H15.9375C16.4688 14.078 17 13.5467 17 13.0155V1.0625C17 0.53125 16.4688 0 15.9375 0ZM16.4333 13.0158C16.4333 13.2337 16.1551 13.5116 15.9375 13.5116H1.0625C0.844617 13.5116 0.566667 13.2337 0.566667 13.0158V11.9533H16.4333V13.0158Z" fill="url(#paint0_linear_1463_90)"/>
<path d="M8.50002 13.2815C8.6468 13.2815 8.76579 13.1625 8.76579 13.0158C8.76579 12.869 8.6468 12.75 8.50002 12.75C8.35324 12.75 8.23425 12.869 8.23425 13.0158C8.23425 13.1625 8.35324 13.2815 8.50002 13.2815Z" fill="url(#paint1_linear_1463_90)"/>
<defs>
<linearGradient id="paint0_linear_1463_90" x1="0" y1="0" x2="19.5" y2="19" gradientUnits="userSpaceOnUse">
<stop stop-color="#583ADB"/>
<stop offset="1" stop-color="#3000FF" stop-opacity="0.31"/>
</linearGradient>
<linearGradient id="paint1_linear_1463_90" x1="8.50002" y1="12.75" x2="8.50002" y2="13.2815" gradientUnits="userSpaceOnUse">
<stop stop-color="#583ADB"/>
<stop offset="1" stop-color="#3000FF" stop-opacity="0.31"/>
</linearGradient>
</defs>
</svg>
