<svg width="30" height="30" viewBox="0 0 30 30" fill="none" xmlns="http://www.w3.org/2000/svg">
<path d="M6.13428 7.7594H26.1039C26.5085 7.75941 26.9086 7.84422 27.2785 8.00834C27.6483 8.17246 27.9797 8.41226 28.2512 8.71228C28.5227 9.0123 28.7283 9.36589 28.8548 9.75024C28.9813 10.1346 29.0259 10.5412 28.9856 10.9438L28.1167 19.6325C28.0453 20.3472 27.7108 21.0098 27.1783 21.4917C26.6458 21.9737 25.9532 22.2406 25.235 22.2406H11.4054C10.7356 22.2409 10.0865 22.009 9.56841 21.5844C9.05037 21.1598 8.6955 20.5688 8.56422 19.912L6.13428 7.7594Z" stroke="#D97C29" stroke-width="2" stroke-linejoin="round"/>
<path d="M6.13428 7.7594L4.9613 3.06315C4.88285 2.74999 4.70202 2.47204 4.44752 2.27342C4.19302 2.07481 3.87945 1.96693 3.55662 1.96692H1.78992" stroke="#D97C29" stroke-width="2" stroke-linecap="round" stroke-linejoin="round"/>
<path d="M10.4786 28.0331H13.3749" stroke="#D97C29" stroke-width="2" stroke-linecap="round" stroke-linejoin="round"/>
<path d="M22.0636 28.0331H24.9598" stroke="#D97C29" stroke-width="2" stroke-linecap="round" stroke-linejoin="round"/>
</svg>
