<?xml version="1.0" encoding="UTF-8" standalone="no"?>
<svg width="129px" height="63px" viewBox="0 0 129 63" version="1.1" xmlns="http://www.w3.org/2000/svg" xmlns:xlink="http://www.w3.org/1999/xlink">
    <!-- Generator: sketchtool 42 (36781) - http://www.bohemiancoding.com/sketch -->
    <title>CFAABE4C-F06E-4F4F-8AA6-265EB2292C12</title>
    <desc>Created with sketchtool.</desc>
    <defs></defs>
    <g id="Welcome" stroke="none" stroke-width="1" fill="none" fill-rule="evenodd">
        <g id="18-my-wishlist-empty" transform="translate(-1141.000000, -200.000000)" fill="#555555">
            <g id="Group-4" transform="translate(1141.000000, 200.000000)">
                <g id="Group-3">
                    <g id="Group-2">
                        <path d="M23.5280653,35.0389784 C23.2036097,34.9569239 22.8664659,35.0051856 22.5792163,35.176529 C22.2916805,35.3473012 22.0880014,35.6195468 22.0057665,35.9431953 C21.9804855,36.0425745 22.0406829,36.1435719 22.1402806,36.1687974 C22.2397829,36.1939278 22.3410977,36.1339576 22.3663787,36.0344833 C22.4242866,35.8069774 22.5673867,35.6156439 22.7695394,35.4955132 C22.9730277,35.3748113 23.2085705,35.3411138 23.4364812,35.3988946 C23.9071851,35.5179782 24.1930037,35.9969781 24.0735628,36.4666493 C23.954122,36.9364157 23.4740689,37.2214168 23.0034604,37.1023332 C22.8402308,37.0610204 22.6934102,36.9748727 22.5787393,36.8530286 C22.5084294,36.7783038 22.390515,36.7745914 22.3158167,36.8448422 C22.2409277,36.9149977 22.2371117,37.0324631 22.3075169,37.1071879 C22.4708418,37.2807206 22.6798633,37.4035167 22.9118763,37.4622494 C23.2367135,37.5444942 23.5646989,37.4912826 23.8356351,37.3385014 C24.1233617,37.1763916 24.3467886,36.9019566 24.4342705,36.5579372 C24.6040826,35.8898885 24.1975829,35.2085131 23.5280653,35.0389784" id="Fill-7"></path>
                        <path d="M93.5280653,0.0389783536 C93.2036097,-0.043076077 92.8664659,0.00518563563 92.5792163,0.176528994 C92.2916805,0.347301208 92.0880014,0.619546767 92.0057665,0.943195333 C91.9804855,1.04257448 92.0406829,1.14357187 92.1402806,1.16879742 C92.2397829,1.19392778 92.3410977,1.13395761 92.3663787,1.03448327 C92.4242866,0.806977363 92.5673867,0.615643946 92.7695394,0.495513213 C92.9730277,0.374811336 93.2085705,0.341113809 93.4364812,0.398894597 C93.9071851,0.517978231 94.1930037,0.996978109 94.0735628,1.46664929 C93.954122,1.93641567 93.4740689,2.22141679 93.0034604,2.10233315 C92.8402308,2.06102037 92.6934102,1.97487273 92.5787393,1.85302857 C92.5084294,1.77830382 92.390515,1.77459139 92.3158167,1.84484216 C92.2409277,1.91499775 92.2371117,2.03246314 92.3075169,2.10718788 C92.4708418,2.28072063 92.6798633,2.4035167 92.9118763,2.4622494 C93.2367135,2.54449421 93.5646989,2.49128258 93.8356351,2.33850142 C94.1233617,2.17639156 94.3467886,1.90195661 94.4342705,1.55793723 C94.6040826,0.88988851 94.1975829,0.208513088 93.5280653,0.0389783536" id="Fill-7"></path>
                        <path d="M127.528065,39.0389784 C127.20361,38.9569239 126.866466,39.0051856 126.579216,39.176529 C126.291681,39.3473012 126.088001,39.6195468 126.005767,39.9431953 C125.980486,40.0425745 126.040683,40.1435719 126.140281,40.1687974 C126.239783,40.1939278 126.341098,40.1339576 126.366379,40.0344833 C126.424287,39.8069774 126.567387,39.6156439 126.769539,39.4955132 C126.973028,39.3748113 127.20857,39.3411138 127.436481,39.3988946 C127.907185,39.5179782 128.193004,39.9969781 128.073563,40.4666493 C127.954122,40.9364157 127.474069,41.2214168 127.00346,41.1023332 C126.840231,41.0610204 126.69341,40.9748727 126.578739,40.8530286 C126.508429,40.7783038 126.390515,40.7745914 126.315817,40.8448422 C126.240928,40.9149977 126.237112,41.0324631 126.307517,41.1071879 C126.470842,41.2807206 126.679863,41.4035167 126.911876,41.4622494 C127.236714,41.5444942 127.564699,41.4912826 127.835635,41.3385014 C128.123362,41.1763916 128.346789,40.9019566 128.43427,40.5579372 C128.604083,39.8898885 128.197583,39.2085131 127.528065,39.0389784" id="Fill-7"></path>
                        <path d="M61.7095165,9.92722822 L62.6235445,9.0152056 C62.7053977,8.93353193 62.7053977,8.80112159 62.6235445,8.71944793 C62.5416912,8.63777426 62.4089897,8.63777426 62.3271365,8.71944793 L61.4131085,9.63137536 L60.4991759,8.71944793 C60.4173227,8.63777426 60.2846212,8.63777426 60.2027679,8.71944793 C60.1209147,8.80112159 60.1209147,8.93353193 60.2027679,9.0152056 L61.1167005,9.92722822 L60.2027679,10.8391557 C60.1209147,10.9208293 60.1209147,11.0532397 60.2027679,11.1349133 C60.2846212,11.216587 60.4173227,11.216587 60.4991759,11.1349133 L61.4131085,10.2229859 L62.3271365,11.1350085 C62.4089897,11.2166822 62.5417866,11.2166822 62.6236399,11.1350085 C62.7054931,11.0533349 62.7054931,10.9209245 62.6236399,10.8392508 L61.7095165,9.92722822 Z" id="Fill-26"></path>
                        <path d="M91.7095165,60.9272282 L92.6235445,60.0152056 C92.7053977,59.9335319 92.7053977,59.8011216 92.6235445,59.7194479 C92.5416912,59.6377743 92.4089897,59.6377743 92.3271365,59.7194479 L91.4131085,60.6313754 L90.4991759,59.7194479 C90.4173227,59.6377743 90.2846212,59.6377743 90.2027679,59.7194479 C90.1209147,59.8011216 90.1209147,59.9335319 90.2027679,60.0152056 L91.1167005,60.9272282 L90.2027679,61.8391557 C90.1209147,61.9208293 90.1209147,62.0532397 90.2027679,62.1349133 C90.2846212,62.216587 90.4173227,62.216587 90.4991759,62.1349133 L91.4131085,61.2229859 L92.3271365,62.1350085 C92.4089897,62.2166822 92.5417866,62.2166822 92.6236399,62.1350085 C92.7054931,62.0533349 92.7054931,61.9209245 92.6236399,61.8392508 L91.7095165,60.9272282 Z" id="Fill-26"></path>
                        <path d="M1.7095165,42.9272282 L2.62354448,42.0152056 C2.70539773,41.9335319 2.70539773,41.8011216 2.62354448,41.7194479 C2.54169122,41.6377743 2.40898974,41.6377743 2.32713649,41.7194479 L1.41310851,42.6313754 L0.499175928,41.7194479 C0.417322676,41.6377743 0.284621192,41.6377743 0.20276794,41.7194479 C0.120914688,41.8011216 0.120914688,41.9335319 0.20276794,42.0152056 L1.11670052,42.9272282 L0.20276794,43.8391557 C0.120914688,43.9208293 0.120914688,44.0532397 0.20276794,44.1349133 C0.284621192,44.216587 0.417322676,44.216587 0.499175928,44.1349133 L1.41310851,43.2229859 L2.32713649,44.1350085 C2.40898974,44.2166822 2.54178662,44.2166822 2.62363988,44.1350085 C2.70549313,44.0533349 2.70549313,43.9209245 2.62363988,43.8392508 L1.7095165,42.9272282 Z" id="Fill-26"></path>
                        <path d="M104.230949,31.8192073 L102.995328,31.8192073 L102.995328,30.5862014 C102.995328,30.4757801 102.905556,30.3863008 102.794892,30.3863008 C102.684228,30.3863008 102.594552,30.4757801 102.594552,30.5862014 L102.594552,31.8192073 L101.35874,31.8192073 C101.248076,31.8192073 101.158304,31.9086866 101.158304,32.0191078 C101.158304,32.1295291 101.248076,32.2191036 101.35874,32.2191036 L102.594552,32.2191036 L102.594552,33.4521095 C102.594552,33.5625307 102.684228,33.6521052 102.794892,33.6521052 C102.905556,33.6521052 102.995328,33.5625307 102.995328,33.4521095 L102.995328,32.2191036 L104.230949,32.2191036 C104.341613,32.2191036 104.431385,32.1295291 104.431385,32.0191078 C104.431385,31.9086866 104.341613,31.8192073 104.230949,31.8192073" id="Fill-27"></path>
                        <path d="M29.2309493,5.81920726 L27.9953277,5.81920726 L27.9953277,4.58620141 C27.9953277,4.47578013 27.9055562,4.38630083 27.7948922,4.38630083 C27.6842281,4.38630083 27.594552,4.47578013 27.594552,4.58620141 L27.594552,5.81920726 L26.3587397,5.81920726 C26.2480756,5.81920726 26.1583041,5.90868657 26.1583041,6.01910784 C26.1583041,6.12952912 26.2480756,6.21910362 26.3587397,6.21910362 L27.594552,6.21910362 L27.594552,7.45210946 C27.594552,7.56253074 27.6842281,7.65210524 27.7948922,7.65210524 C27.9055562,7.65210524 27.9953277,7.56253074 27.9953277,7.45210946 L27.9953277,6.21910362 L29.2309493,6.21910362 C29.3416133,6.21910362 29.4313848,6.12952912 29.4313848,6.01910784 C29.4313848,5.90868657 29.3416133,5.81920726 29.2309493,5.81920726" id="Fill-27"></path>
                        <path d="M44.0726452,57.4329064 L42.8370236,57.4329064 L42.8370236,56.1999006 C42.8370236,56.0894793 42.7472521,56 42.636588,56 C42.525924,56 42.4362479,56.0894793 42.4362479,56.1999006 L42.4362479,57.4329064 L41.2004355,57.4329064 C41.0897715,57.4329064 41,57.5223857 41,57.632807 C41,57.7432283 41.0897715,57.8328028 41.2004355,57.8328028 L42.4362479,57.8328028 L42.4362479,59.0658086 C42.4362479,59.1762299 42.525924,59.2658044 42.636588,59.2658044 C42.7472521,59.2658044 42.8370236,59.1762299 42.8370236,59.0658086 L42.8370236,57.8328028 L44.0726452,57.8328028 C44.1833092,57.8328028 44.2730807,57.7432283 44.2730807,57.632807 C44.2730807,57.5223857 44.1833092,57.4329064 44.0726452,57.4329064" id="Fill-27"></path>
                        <g id="heart-(1)-copy" transform="translate(40.000000, 19.000000)">
                            <g id="Capa_1">
                                <path d="M19.4857434,36.8820451 C20.0199593,37.4093019 20.7380855,37.7031827 21.4912424,37.7031827 C22.2356415,37.7031827 22.9712831,37.4006583 23.4967413,36.8820451 L39.2342159,21.3495785 C41.6250509,18.9898882 42.9386965,15.8522781 42.9474542,12.5245098 C42.9474542,9.18809794 41.6338086,6.05048783 39.2429735,3.69079758 C36.8521385,1.33110732 33.6818737,0.0345742162 30.3014257,0.0345742162 C26.9822811,0.0345742162 23.8558045,1.28788955 21.4824847,3.56978782 C19.1004073,1.279246 15.9651731,0.0172871081 12.6372709,0.0172871081 C9.26558045,0.0172871081 6.09531568,1.31382021 3.70448065,3.66486691 C1.31364562,6.02455717 0,9.16216728 0,12.4985791 C0,15.8263474 1.32240326,18.9639576 3.71323829,21.3236478 L19.4857434,36.8820451 Z M5.22830957,5.16884532 C7.20753564,3.2154021 9.84358452,2.13495785 12.6460285,2.13495785 C15.4484725,2.13495785 18.093279,3.2154021 20.0812627,5.17748887 L20.7293279,5.81711187 C20.9307536,6.01591361 21.2022403,6.12827981 21.4912424,6.12827981 L21.4912424,6.12827981 C21.7714868,6.12827981 22.0517312,6.01591361 22.2531568,5.81711187 L22.8837067,5.19477598 C24.8716904,3.23268921 27.5077393,2.15224496 30.3189409,2.15224496 C33.1213849,2.15224496 35.7574338,3.23268921 37.7366599,5.18613242 C39.7246436,7.14821919 40.8105906,9.74992896 40.8105906,12.5158662 C40.8105906,15.2818035 39.7158859,17.8835133 37.7279022,19.8456001 L21.9816701,35.3867102 C21.7276986,35.6373733 21.2635438,35.6373733 21.0008147,35.3867102 L5.23706721,19.828313 C3.2490835,17.8662262 2.15437882,15.2645164 2.15437882,12.4985791 C2.15437882,9.73264185 3.2490835,7.13093208 5.22830957,5.16884532 Z" id="Shape"></path>
                            </g>
                        </g>
                    </g>
                </g>
            </g>
        </g>
    </g>
</svg>